<svg xmlns="http://www.w3.org/2000/svg" width="108" height="108" viewBox="0 0 108 108">
  <path d="M0,0h108v108h-108z" fill="#3DDC84" id="path_0"/>
  <path d="M9,0L9,108" fill="#00000000" stroke-width="0.8" stroke="#FFFFFF33" id="path_1"/>
  <path d="M19,0L19,108" fill="#00000000" stroke-width="0.8" stroke="#FFFFFF33" id="path_2"/>
  <path d="M29,0L29,108" fill="#00000000" stroke-width="0.8" stroke="#FFFFFF33" id="path_3"/>
  <path d="M39,0L39,108" fill="#00000000" stroke-width="0.8" stroke="#FFFFFF33" id="path_4"/>
  <path d="M49,0L49,108" fill="#00000000" stroke-width="0.8" stroke="#FFFFFF33" id="path_5"/>
  <path d="M59,0L59,108" fill="#00000000" stroke-width="0.8" stroke="#FFFFFF33" id="path_6"/>
  <path d="M69,0L69,108" fill="#00000000" stroke-width="0.8" stroke="#FFFFFF33" id="path_7"/>
  <path d="M79,0L79,108" fill="#00000000" stroke-width="0.8" stroke="#FFFFFF33" id="path_8"/>
  <path d="M89,0L89,108" fill="#00000000" stroke-width="0.8" stroke="#FFFFFF33" id="path_9"/>
  <path d="M99,0L99,108" fill="#00000000" stroke-width="0.8" stroke="#FFFFFF33" id="path_10"/>
  <path d="M0,9L108,9" fill="#00000000" stroke-width="0.8" stroke="#FFFFFF33" id="path_11"/>
  <path d="M0,19L108,19" fill="#00000000" stroke-width="0.8" stroke="#FFFFFF33" id="path_12"/>
  <path d="M0,29L108,29" fill="#00000000" stroke-width="0.8" stroke="#FFFFFF33" id="path_13"/>
  <path d="M0,39L108,39" fill="#00000000" stroke-width="0.8" stroke="#FFFFFF33" id="path_14"/>
  <path d="M0,49L108,49" fill="#00000000" stroke-width="0.8" stroke="#FFFFFF33" id="path_15"/>
  <path d="M0,59L108,59" fill="#00000000" stroke-width="0.8" stroke="#FFFFFF33" id="path_16"/>
  <path d="M0,69L108,69" fill="#00000000" stroke-width="0.8" stroke="#FFFFFF33" id="path_17"/>
  <path d="M0,79L108,79" fill="#00000000" stroke-width="0.8" stroke="#FFFFFF33" id="path_18"/>
  <path d="M0,89L108,89" fill="#00000000" stroke-width="0.8" stroke="#FFFFFF33" id="path_19"/>
  <path d="M0,99L108,99" fill="#00000000" stroke-width="0.8" stroke="#FFFFFF33" id="path_20"/>
  <path d="M19,29L89,29" fill="#00000000" stroke-width="0.8" stroke="#FFFFFF33" id="path_21"/>
  <path d="M19,39L89,39" fill="#00000000" stroke-width="0.8" stroke="#FFFFFF33" id="path_22"/>
  <path d="M19,49L89,49" fill="#00000000" stroke-width="0.8" stroke="#FFFFFF33" id="path_23"/>
  <path d="M19,59L89,59" fill="#00000000" stroke-width="0.8" stroke="#FFFFFF33" id="path_24"/>
  <path d="M19,69L89,69" fill="#00000000" stroke-width="0.8" stroke="#FFFFFF33" id="path_25"/>
  <path d="M19,79L89,79" fill="#00000000" stroke-width="0.8" stroke="#FFFFFF33" id="path_26"/>
  <path d="M29,19L29,89" fill="#00000000" stroke-width="0.8" stroke="#FFFFFF33" id="path_27"/>
  <path d="M39,19L39,89" fill="#00000000" stroke-width="0.8" stroke="#FFFFFF33" id="path_28"/>
  <path d="M49,19L49,89" fill="#00000000" stroke-width="0.8" stroke="#FFFFFF33" id="path_29"/>
  <path d="M59,19L59,89" fill="#00000000" stroke-width="0.8" stroke="#FFFFFF33" id="path_30"/>
  <path d="M69,19L69,89" fill="#00000000" stroke-width="0.8" stroke="#FFFFFF33" id="path_31"/>
  <path d="M79,19L79,89" fill="#00000000" stroke-width="0.8" stroke="#FFFFFF33" id="path_32"/>
</svg>
